<mxfile host="Electron" agent="Mozilla/5.0 (X11; Linux x86_64) AppleWebKit/537.36 (KHTML, like Gecko) draw.io/28.1.2 Chrome/138.0.7204.243 Electron/37.4.0 Safari/537.36" version="28.1.2">
  <diagram name="Page-1" id="Ps_G5mctfiVRrwMJfwCY">
    <mxGraphModel dx="609" dy="386" grid="1" gridSize="10" guides="1" tooltips="1" connect="1" arrows="1" fold="1" page="1" pageScale="1" pageWidth="850" pageHeight="1100" math="0" shadow="0">
      <root>
        <mxCell id="0" />
        <mxCell id="1" parent="0" />
        <mxCell id="pWbaVmhl9ET9ZZC19gLA-33" value="" style="rounded=0;whiteSpace=wrap;html=1;strokeColor=none;fillColor=#f5f5f5;fontColor=#333333;" vertex="1" parent="1">
          <mxGeometry x="430" y="390" width="20" height="110" as="geometry" />
        </mxCell>
        <mxCell id="pWbaVmhl9ET9ZZC19gLA-32" value="" style="rounded=0;whiteSpace=wrap;html=1;strokeColor=none;fillColor=#f5f5f5;fontColor=#333333;" vertex="1" parent="1">
          <mxGeometry x="350" y="390" width="20" height="110" as="geometry" />
        </mxCell>
        <mxCell id="pWbaVmhl9ET9ZZC19gLA-1" value="" style="endArrow=classic;html=1;rounded=0;" edge="1" parent="1">
          <mxGeometry width="50" height="50" relative="1" as="geometry">
            <mxPoint x="280" y="480" as="sourcePoint" />
            <mxPoint x="520" y="480" as="targetPoint" />
          </mxGeometry>
        </mxCell>
        <mxCell id="pWbaVmhl9ET9ZZC19gLA-4" value="Time" style="edgeLabel;html=1;align=left;verticalAlign=middle;resizable=0;points=[];" vertex="1" connectable="0" parent="pWbaVmhl9ET9ZZC19gLA-1">
          <mxGeometry x="0.5675" y="2" relative="1" as="geometry">
            <mxPoint x="52" y="2" as="offset" />
          </mxGeometry>
        </mxCell>
        <mxCell id="pWbaVmhl9ET9ZZC19gLA-2" value="" style="endArrow=classic;html=1;rounded=0;jumpStyle=none;" edge="1" parent="1">
          <mxGeometry width="50" height="50" relative="1" as="geometry">
            <mxPoint x="280" y="480" as="sourcePoint" />
            <mxPoint x="280" y="380" as="targetPoint" />
          </mxGeometry>
        </mxCell>
        <mxCell id="pWbaVmhl9ET9ZZC19gLA-3" value="V" style="edgeLabel;html=1;align=center;verticalAlign=middle;resizable=0;points=[];" vertex="1" connectable="0" parent="pWbaVmhl9ET9ZZC19gLA-2">
          <mxGeometry x="0.5627" y="-1" relative="1" as="geometry">
            <mxPoint x="-11" y="-26" as="offset" />
          </mxGeometry>
        </mxCell>
        <mxCell id="pWbaVmhl9ET9ZZC19gLA-6" value="3.75" style="endArrow=none;html=1;rounded=0;align=right;" edge="1" parent="1">
          <mxGeometry x="-1" y="-5" width="50" height="50" relative="1" as="geometry">
            <mxPoint x="275" y="400" as="sourcePoint" />
            <mxPoint x="285" y="400" as="targetPoint" />
            <mxPoint x="-5" y="-5" as="offset" />
          </mxGeometry>
        </mxCell>
        <mxCell id="pWbaVmhl9ET9ZZC19gLA-8" value="2.5" style="endArrow=none;html=1;rounded=0;align=right;" edge="1" parent="1">
          <mxGeometry x="-1" y="-5" width="50" height="50" relative="1" as="geometry">
            <mxPoint x="275" y="430" as="sourcePoint" />
            <mxPoint x="285" y="430" as="targetPoint" />
            <Array as="points">
              <mxPoint x="280" y="430" />
            </Array>
            <mxPoint x="-5" y="-5" as="offset" />
          </mxGeometry>
        </mxCell>
        <mxCell id="pWbaVmhl9ET9ZZC19gLA-9" value="1.25" style="endArrow=none;html=1;rounded=0;align=right;" edge="1" parent="1">
          <mxGeometry x="-1" y="-5" width="50" height="50" relative="1" as="geometry">
            <mxPoint x="275" y="460" as="sourcePoint" />
            <mxPoint x="285" y="460" as="targetPoint" />
            <mxPoint x="-5" y="-5" as="offset" />
          </mxGeometry>
        </mxCell>
        <mxCell id="pWbaVmhl9ET9ZZC19gLA-10" value="" style="endArrow=none;html=1;rounded=0;fillColor=#dae8fc;strokeColor=#6c8ebf;" edge="1" parent="1">
          <mxGeometry width="50" height="50" relative="1" as="geometry">
            <mxPoint x="280" y="431" as="sourcePoint" />
            <mxPoint x="350" y="431" as="targetPoint" />
          </mxGeometry>
        </mxCell>
        <mxCell id="pWbaVmhl9ET9ZZC19gLA-11" value="" style="endArrow=none;html=1;rounded=0;fillColor=#dae8fc;strokeColor=#6c8ebf;" edge="1" parent="1">
          <mxGeometry width="50" height="50" relative="1" as="geometry">
            <mxPoint x="350" y="431" as="sourcePoint" />
            <mxPoint x="370" y="460" as="targetPoint" />
          </mxGeometry>
        </mxCell>
        <mxCell id="pWbaVmhl9ET9ZZC19gLA-12" value="" style="endArrow=none;html=1;rounded=0;fillColor=#dae8fc;strokeColor=#6c8ebf;" edge="1" parent="1">
          <mxGeometry width="50" height="50" relative="1" as="geometry">
            <mxPoint x="370" y="460" as="sourcePoint" />
            <mxPoint x="430" y="460" as="targetPoint" />
          </mxGeometry>
        </mxCell>
        <mxCell id="pWbaVmhl9ET9ZZC19gLA-16" value="" style="endArrow=none;html=1;rounded=0;fillColor=#dae8fc;strokeColor=#6c8ebf;" edge="1" parent="1">
          <mxGeometry width="50" height="50" relative="1" as="geometry">
            <mxPoint x="430" y="460" as="sourcePoint" />
            <mxPoint x="450" y="431" as="targetPoint" />
          </mxGeometry>
        </mxCell>
        <mxCell id="pWbaVmhl9ET9ZZC19gLA-17" value="" style="endArrow=none;html=1;rounded=0;fillColor=#dae8fc;strokeColor=#6c8ebf;" edge="1" parent="1">
          <mxGeometry width="50" height="50" relative="1" as="geometry">
            <mxPoint x="450" y="431" as="sourcePoint" />
            <mxPoint x="520" y="431" as="targetPoint" />
          </mxGeometry>
        </mxCell>
        <mxCell id="pWbaVmhl9ET9ZZC19gLA-18" value="" style="endArrow=none;html=1;rounded=0;fillColor=#f8cecc;strokeColor=#b85450;" edge="1" parent="1">
          <mxGeometry width="50" height="50" relative="1" as="geometry">
            <mxPoint x="350" y="429" as="sourcePoint" />
            <mxPoint x="370" y="400" as="targetPoint" />
          </mxGeometry>
        </mxCell>
        <mxCell id="pWbaVmhl9ET9ZZC19gLA-19" value="" style="endArrow=none;html=1;rounded=0;fillColor=#f8cecc;strokeColor=#b85450;" edge="1" parent="1">
          <mxGeometry width="50" height="50" relative="1" as="geometry">
            <mxPoint x="370" y="400" as="sourcePoint" />
            <mxPoint x="430" y="400" as="targetPoint" />
          </mxGeometry>
        </mxCell>
        <mxCell id="pWbaVmhl9ET9ZZC19gLA-20" value="" style="endArrow=none;html=1;rounded=0;fillColor=#f8cecc;strokeColor=#b85450;" edge="1" parent="1">
          <mxGeometry width="50" height="50" relative="1" as="geometry">
            <mxPoint x="430" y="400" as="sourcePoint" />
            <mxPoint x="450" y="429" as="targetPoint" />
          </mxGeometry>
        </mxCell>
        <mxCell id="pWbaVmhl9ET9ZZC19gLA-21" value="" style="endArrow=none;html=1;rounded=0;fillColor=#f8cecc;strokeColor=#b85450;" edge="1" parent="1">
          <mxGeometry width="50" height="50" relative="1" as="geometry">
            <mxPoint x="450" y="429" as="sourcePoint" />
            <mxPoint x="520" y="429" as="targetPoint" />
          </mxGeometry>
        </mxCell>
        <mxCell id="pWbaVmhl9ET9ZZC19gLA-22" value="" style="endArrow=none;html=1;rounded=0;fillColor=#f8cecc;strokeColor=#b85450;" edge="1" parent="1">
          <mxGeometry width="50" height="50" relative="1" as="geometry">
            <mxPoint x="280" y="429" as="sourcePoint" />
            <mxPoint x="350" y="429" as="targetPoint" />
          </mxGeometry>
        </mxCell>
        <mxCell id="pWbaVmhl9ET9ZZC19gLA-24" value="CAN High" style="rounded=0;whiteSpace=wrap;html=1;fillColor=#f8cecc;strokeColor=#b85450;" vertex="1" parent="1">
          <mxGeometry x="460" y="400" width="60" height="20" as="geometry" />
        </mxCell>
        <mxCell id="pWbaVmhl9ET9ZZC19gLA-26" value="CAN Low" style="rounded=0;whiteSpace=wrap;html=1;fillColor=#dae8fc;strokeColor=#6c8ebf;" vertex="1" parent="1">
          <mxGeometry x="460" y="440" width="60" height="20" as="geometry" />
        </mxCell>
        <mxCell id="pWbaVmhl9ET9ZZC19gLA-27" value="2.5V" style="endArrow=classic;startArrow=classic;html=1;rounded=0;align=left;" edge="1" parent="1">
          <mxGeometry width="50" height="50" relative="1" as="geometry">
            <mxPoint x="380" y="460" as="sourcePoint" />
            <mxPoint x="380" y="400" as="targetPoint" />
            <mxPoint as="offset" />
          </mxGeometry>
        </mxCell>
        <mxCell id="pWbaVmhl9ET9ZZC19gLA-28" value="" style="endArrow=none;dashed=1;html=1;dashPattern=1 3;strokeWidth=1;rounded=0;fillColor=#f5f5f5;strokeColor=#666666;" edge="1" parent="1">
          <mxGeometry width="50" height="50" relative="1" as="geometry">
            <mxPoint x="350" y="500" as="sourcePoint" />
            <mxPoint x="350" y="390" as="targetPoint" />
          </mxGeometry>
        </mxCell>
        <mxCell id="pWbaVmhl9ET9ZZC19gLA-29" value="" style="endArrow=none;dashed=1;html=1;dashPattern=1 3;strokeWidth=1;rounded=0;fillColor=#f5f5f5;strokeColor=#666666;" edge="1" parent="1">
          <mxGeometry width="50" height="50" relative="1" as="geometry">
            <mxPoint x="430" y="500" as="sourcePoint" />
            <mxPoint x="430" y="390" as="targetPoint" />
          </mxGeometry>
        </mxCell>
        <mxCell id="pWbaVmhl9ET9ZZC19gLA-30" value="" style="endArrow=none;dashed=1;html=1;dashPattern=1 3;strokeWidth=1;rounded=0;fillColor=#f5f5f5;strokeColor=#666666;" edge="1" parent="1">
          <mxGeometry width="50" height="50" relative="1" as="geometry">
            <mxPoint x="370" y="500" as="sourcePoint" />
            <mxPoint x="370" y="390" as="targetPoint" />
          </mxGeometry>
        </mxCell>
        <mxCell id="pWbaVmhl9ET9ZZC19gLA-31" value="" style="endArrow=none;dashed=1;html=1;dashPattern=1 3;strokeWidth=1;rounded=0;fillColor=#f5f5f5;strokeColor=#666666;" edge="1" parent="1">
          <mxGeometry width="50" height="50" relative="1" as="geometry">
            <mxPoint x="450" y="500" as="sourcePoint" />
            <mxPoint x="450" y="390" as="targetPoint" />
          </mxGeometry>
        </mxCell>
        <mxCell id="pWbaVmhl9ET9ZZC19gLA-34" value="Logical 1" style="text;html=1;align=center;verticalAlign=middle;whiteSpace=wrap;rounded=0;" vertex="1" parent="1">
          <mxGeometry x="280" y="480" width="70" height="20" as="geometry" />
        </mxCell>
        <mxCell id="pWbaVmhl9ET9ZZC19gLA-35" value="Logical 0" style="text;html=1;align=center;verticalAlign=middle;whiteSpace=wrap;rounded=0;" vertex="1" parent="1">
          <mxGeometry x="370" y="480" width="60" height="20" as="geometry" />
        </mxCell>
        <mxCell id="pWbaVmhl9ET9ZZC19gLA-36" value="Logical 1" style="text;html=1;align=center;verticalAlign=middle;whiteSpace=wrap;rounded=0;" vertex="1" parent="1">
          <mxGeometry x="450" y="480" width="60" height="20" as="geometry" />
        </mxCell>
      </root>
    </mxGraphModel>
  </diagram>
</mxfile>
